<mxfile host="app.diagrams.net" modified="2023-10-06T14:09:10.044Z" agent="Mozilla/5.0 (Windows NT 10.0; Win64; x64) AppleWebKit/537.36 (KHTML, like Gecko) Chrome/117.0.0.0 Safari/537.36" etag="zGZWRHKyP41MMmxPUA-8" version="21.8.2" type="github">
  <diagram name="第 1 页" id="6FLoj00Mrwi2u7fexnqR">
    <mxGraphModel dx="1562" dy="830" grid="1" gridSize="10" guides="1" tooltips="1" connect="1" arrows="1" fold="1" page="1" pageScale="1" pageWidth="827" pageHeight="1169" math="0" shadow="0">
      <root>
        <mxCell id="0" />
        <mxCell id="1" parent="0" />
        <mxCell id="ZDGl9QlbJMYVPg04EKXe-1" value="&lt;font face=&quot;宋体&quot;&gt;档案信息管理功能&lt;/font&gt;" style="rounded=0;whiteSpace=wrap;html=1;" vertex="1" parent="1">
          <mxGeometry x="197" y="90" width="210" height="30" as="geometry" />
        </mxCell>
        <mxCell id="ZDGl9QlbJMYVPg04EKXe-2" value="" style="endArrow=none;html=1;rounded=0;entryX=0.5;entryY=1;entryDx=0;entryDy=0;" edge="1" parent="1" target="ZDGl9QlbJMYVPg04EKXe-1">
          <mxGeometry width="50" height="50" relative="1" as="geometry">
            <mxPoint x="302" y="200" as="sourcePoint" />
            <mxPoint x="162" y="370" as="targetPoint" />
          </mxGeometry>
        </mxCell>
        <mxCell id="ZDGl9QlbJMYVPg04EKXe-3" value="&lt;font face=&quot;宋体&quot;&gt;查看学生档案&lt;/font&gt;" style="rounded=0;whiteSpace=wrap;html=1;" vertex="1" parent="1">
          <mxGeometry x="230" y="321" width="25" height="100" as="geometry" />
        </mxCell>
        <mxCell id="ZDGl9QlbJMYVPg04EKXe-4" value="" style="endArrow=none;html=1;rounded=0;" edge="1" parent="1">
          <mxGeometry width="50" height="50" relative="1" as="geometry">
            <mxPoint x="123" y="200" as="sourcePoint" />
            <mxPoint x="480" y="200" as="targetPoint" />
          </mxGeometry>
        </mxCell>
        <mxCell id="ZDGl9QlbJMYVPg04EKXe-5" value="&lt;font face=&quot;宋体&quot;&gt;新增学生档案&lt;/font&gt;" style="rounded=0;whiteSpace=wrap;html=1;" vertex="1" parent="1">
          <mxGeometry x="110" y="320" width="25" height="100" as="geometry" />
        </mxCell>
        <mxCell id="ZDGl9QlbJMYVPg04EKXe-6" value="" style="endArrow=none;html=1;rounded=0;" edge="1" parent="1">
          <mxGeometry width="50" height="50" relative="1" as="geometry">
            <mxPoint x="122" y="320" as="sourcePoint" />
            <mxPoint x="122" y="200" as="targetPoint" />
          </mxGeometry>
        </mxCell>
        <mxCell id="ZDGl9QlbJMYVPg04EKXe-7" value="&lt;font face=&quot;宋体&quot;&gt;删除学生档案&lt;/font&gt;" style="rounded=0;whiteSpace=wrap;html=1;" vertex="1" parent="1">
          <mxGeometry x="350" y="321" width="25" height="100" as="geometry" />
        </mxCell>
        <mxCell id="ZDGl9QlbJMYVPg04EKXe-8" value="" style="endArrow=none;html=1;rounded=0;" edge="1" parent="1">
          <mxGeometry width="50" height="50" relative="1" as="geometry">
            <mxPoint x="362" y="321" as="sourcePoint" />
            <mxPoint x="362" y="201" as="targetPoint" />
          </mxGeometry>
        </mxCell>
        <mxCell id="ZDGl9QlbJMYVPg04EKXe-9" value="&lt;font face=&quot;宋体&quot;&gt;修改学生档案&lt;/font&gt;" style="rounded=0;whiteSpace=wrap;html=1;" vertex="1" parent="1">
          <mxGeometry x="469" y="321" width="25" height="100" as="geometry" />
        </mxCell>
        <mxCell id="ZDGl9QlbJMYVPg04EKXe-10" value="" style="endArrow=none;html=1;rounded=0;" edge="1" parent="1">
          <mxGeometry width="50" height="50" relative="1" as="geometry">
            <mxPoint x="481" y="321" as="sourcePoint" />
            <mxPoint x="481" y="201" as="targetPoint" />
          </mxGeometry>
        </mxCell>
        <mxCell id="ZDGl9QlbJMYVPg04EKXe-11" value="" style="endArrow=none;html=1;rounded=0;" edge="1" parent="1">
          <mxGeometry width="50" height="50" relative="1" as="geometry">
            <mxPoint x="242" y="322" as="sourcePoint" />
            <mxPoint x="242" y="202" as="targetPoint" />
          </mxGeometry>
        </mxCell>
      </root>
    </mxGraphModel>
  </diagram>
</mxfile>
